<?xml version="1.0" encoding="utf-8"?>
<!-- Generator: Adobe Illustrator 16.0.0, SVG Export Plug-In . SVG Version: 6.00 Build 0)  -->
<!DOCTYPE svg PUBLIC "-//W3C//DTD SVG 1.1//EN" "http://www.w3.org/Graphics/SVG/1.1/DTD/svg11.dtd">
<svg version="1.1" id="Layer_1" xmlns="http://www.w3.org/2000/svg" xmlns:xlink="http://www.w3.org/1999/xlink" x="0px" y="0px"
	 width="895px" height="140px" viewBox="0 0 895 140" enable-background="new 0 0 895 140" xml:space="preserve">
<polygon fill="#FFFFFF" points="25.5,31.167 25.5,109.5 74.5,109.5 74.5,89.667 134,89.667 134,66.167 74,66.167 74,57.5 134,57.5 
	134,31.167 "/>
<polygon fill="#FFFFFF" points="295.833,31.167 295.833,109.5 405.333,109.5 405.333,89.167 345,89.167 345,80.834 405.333,80.834 
	405.333,63.167 345.333,63.167 345.333,55.5 405.333,55.5 405.333,31.167 "/>
<path fill="#FFFFFF" d="M428.833,31.167"/>
<rect x="428.833" y="31.167" fill="#FFFFFF" width="48.667" height="78.333"/>
<polygon fill="#FFFFFF" points="491.667,31.167 491.667,61.5 521.167,61.5 521.167,109.5 570.167,109.5 570.167,61.5 599.667,61.5 
	599.667,31.167 "/>
<path fill="#FFFFFF" d="M709.115,31.167h-38.782h-1.051H630.5L599.667,109.5h49.5l4-10.166h16.115h1.051h16.115l4,10.166h49.5
	L709.115,31.167z M670.333,78h-1.051h-10.115l10.641-27.159L680.448,78H670.333z"/>
<path fill="#FFFFFF" d="M868.833,33.167V60.5c0,0-21.999-2.5-35.333-2.5s-36.834-0.834-36.834,17S819,91,825.5,91V69.333h44.666v35
	c0,0-14.833,7.166-56.333,7.166s-66.167-11.833-66.167-39.166c0-27.334,15.5-43.5,67.667-43.5
	C848.166,28.833,868.833,33.167,868.833,33.167z"/>
<path fill="#FFFFFF" d="M249.5,77.166c0,0,30.667-0.5,30.667-23.666c0,0,0.167-22.333-32-22.333s-96.333,0-96.333,0V109.5h48.833
	V83.834l24.5,25.666h57.5L249.5,77.166z M223.5,68.083h-23.167V52.5c0,0,22.083,0,22.917,0s7.167,1.583,7.167,7.792
	S223.5,68.083,223.5,68.083z"/>
</svg>
