<?xml version="1.0" encoding="utf-8"?>
<!-- Generator: Adobe Illustrator 23.1.0, SVG Export Plug-In . SVG Version: 6.00 Build 0)  -->
<svg version="1.1" id="Layer_1" xmlns="http://www.w3.org/2000/svg" xmlns:xlink="http://www.w3.org/1999/xlink" x="0px" y="0px"
	 viewBox="0 0 170 50" style="enable-background:new 0 0 170 50;" xml:space="preserve">
<style type="text/css">
	.st0{fill:#FFFFFF;}
	.st1{fill:url(#SVGID_1_);}
	.st2{fill:url(#SVGID_2_);}
	.st3{fill:url(#SVGID_3_);}
	.st4{fill:url(#SVGID_4_);}
	.st5{opacity:0.2;enable-background:new    ;}
	.st6{opacity:0.12;enable-background:new    ;}
	.st7{opacity:0.25;fill:#FFFFFF;enable-background:new    ;}
</style>
<g>
	<path class="st0" d="M59.7,12.8c0,1-0.3,1.9-0.9,2.5c-0.7,0.7-1.6,1.1-2.8,1.1c-1.1,0-2-0.4-2.8-1.1c-0.8-0.8-1.1-1.7-1.1-2.8
		c0-1.1,0.4-2,1.1-2.8C54,9,54.9,8.6,56,8.6c0.5,0,1.1,0.1,1.6,0.3c0.5,0.2,0.9,0.5,1.2,0.8l-0.7,0.7c-0.5-0.6-1.2-0.9-2.1-0.9
		c-0.8,0-1.5,0.3-2.1,0.8c-0.6,0.6-0.9,1.3-0.9,2.2s0.3,1.6,0.9,2.2c0.6,0.6,1.3,0.8,2.1,0.8c0.8,0,1.5-0.3,2.1-0.8
		c0.4-0.4,0.6-0.9,0.6-1.5H56v-0.9h3.7C59.7,12.4,59.7,12.6,59.7,12.8z"/>
	<path class="st0" d="M65.5,9.7h-3.4V12h3.1V13h-3.1v2.4h3.4v0.9h-4.4V8.8h4.4C65.5,8.8,65.5,9.7,65.5,9.7z"/>
	<path class="st0" d="M69.6,16.3h-1V9.7h-2.1V8.8h5.2v0.9h-2.1L69.6,16.3L69.6,16.3z"/>
	<path class="st0" d="M75.5,16.3V8.8h1v7.5H75.5z"/>
	<path class="st0" d="M80.8,16.3h-1V9.7h-2.1V8.8h5.2v0.9h-2.1V16.3z"/>
	<path class="st0" d="M92.7,15.3C92,16,91,16.4,89.9,16.4c-1.1,0-2-0.4-2.8-1.1c-0.7-0.8-1.1-1.7-1.1-2.8s0.4-2,1.1-2.8
		c0.7-0.8,1.7-1.1,2.8-1.1c1.1,0,2,0.4,2.8,1.1c0.7,0.8,1.1,1.7,1.1,2.8C93.8,13.6,93.4,14.5,92.7,15.3z M87.9,14.7
		c0.6,0.6,1.2,0.8,2.1,0.8c0.8,0,1.5-0.3,2.1-0.8c0.6-0.6,0.8-1.3,0.8-2.2s-0.3-1.6-0.8-2.2c-0.6-0.6-1.2-0.8-2.1-0.8
		c-0.8,0-1.5,0.3-2.1,0.8c-0.6,0.6-0.8,1.3-0.8,2.2S87.3,14.1,87.9,14.7z"/>
	<path class="st0" d="M95.2,16.3V8.8h1.2l3.7,5.8h0l0-1.4V8.8h1v7.5h-1l-3.8-6.1h0l0,1.4v4.7H95.2z"/>
</g>
<path class="st0" d="M85.8,27.2c-3,0-5.4,2.2-5.4,5.3c0,3.1,2.4,5.3,5.4,5.3s5.4-2.3,5.4-5.3C91.2,29.4,88.8,27.2,85.8,27.2z
	 M85.8,35.7c-1.6,0-3-1.3-3-3.2c0-1.9,1.4-3.2,3-3.2s3,1.3,3,3.2C88.8,34.4,87.4,35.7,85.8,35.7z M74.1,27.2c-3,0-5.4,2.2-5.4,5.3
	c0,3.1,2.4,5.3,5.4,5.3s5.4-2.3,5.4-5.3C79.4,29.4,77,27.2,74.1,27.2z M74.1,35.7c-1.6,0-3-1.3-3-3.2c0-1.9,1.4-3.2,3-3.2
	s3,1.3,3,3.2C77.1,34.4,75.7,35.7,74.1,35.7z M60.1,28.8v2.3h5.4c-0.2,1.3-0.6,2.2-1.2,2.8c-0.8,0.8-2,1.7-4.2,1.7c-3.3,0-6-2.7-6-6
	c0-3.3,2.6-6,6-6c1.8,0,3.1,0.7,4.1,1.6l1.6-1.6c-1.4-1.3-3.2-2.3-5.7-2.3c-4.6,0-8.4,3.7-8.4,8.3c0,4.6,3.9,8.3,8.4,8.3
	c2.5,0,4.3-0.8,5.8-2.3c1.5-1.5,2-3.6,2-5.3c0-0.5,0-1-0.1-1.4L60.1,28.8L60.1,28.8z M117.2,30.6c-0.4-1.2-1.8-3.4-4.6-3.4
	c-2.8,0-5.1,2.2-5.1,5.3c0,3,2.3,5.3,5.3,5.3c2.5,0,3.9-1.5,4.5-2.4l-1.8-1.2c-0.6,0.9-1.4,1.5-2.6,1.5s-2.1-0.5-2.6-1.6l7.2-2.9
	L117.2,30.6z M109.9,32.3c-0.1-2.1,1.6-3.1,2.8-3.1c0.9,0,1.7,0.5,2,1.1L109.9,32.3z M104.1,37.5h2.4V21.9h-2.4V37.5z M100.2,28.4
	L100.2,28.4c-0.6-0.6-1.6-1.2-2.9-1.2c-2.7,0-5.1,2.3-5.1,5.3c0,3,2.5,5.3,5.1,5.3c1.3,0,2.3-0.6,2.8-1.2h0.1v0.8
	c0,2-1.1,3.1-2.9,3.1c-1.4,0-2.3-1-2.7-1.9l-2,0.8c0.6,1.4,2.1,3.1,4.7,3.1c2.8,0,5.1-1.6,5.1-5.5v-9.5h-2.2L100.2,28.4L100.2,28.4z
	 M97.5,35.7c-1.6,0-3-1.3-3-3.2c0-1.9,1.4-3.2,3-3.2c1.6,0,2.9,1.4,2.9,3.2C100.4,34.4,99.1,35.7,97.5,35.7z M128.2,21.9h-5.6v15.6
	h2.3v-5.9h3.3c2.6,0,5.2-1.9,5.2-4.9C133.4,23.7,130.8,21.9,128.2,21.9z M128.3,29.4h-3.3V24h3.3c1.8,0,2.8,1.4,2.8,2.7
	C131,27.9,130,29.4,128.3,29.4z M142.8,27.2c-1.7,0-3.5,0.7-4.2,2.4l2.1,0.9c0.4-0.9,1.3-1.1,2.1-1.1c1.2,0,2.5,0.7,2.5,2v0.2
	c-0.4-0.2-1.3-0.6-2.5-0.6c-2.2,0-4.5,1.2-4.5,3.5c0,2.1,1.8,3.4,3.9,3.4c1.6,0,2.5-0.7,3-1.5h0.1v1.2h2.3v-6
	C147.6,28.7,145.5,27.2,142.8,27.2z M142.5,35.7c-0.8,0-1.8-0.4-1.8-1.3c0-1.2,1.3-1.7,2.5-1.7c1,0,1.5,0.2,2.1,0.5
	C145.1,34.7,143.9,35.7,142.5,35.7z M155.8,27.5l-2.7,6.8h-0.1l-2.8-6.8h-2.5l4.2,9.5l-2.4,5.3h2.4l6.5-14.7L155.8,27.5L155.8,27.5z
	 M134.7,37.5h2.3V21.9h-2.3V37.5z"/>
<g>
	
		<linearGradient id="SVGID_1_" gradientUnits="userSpaceOnUse" x1="27.4573" y1="555.1099" x2="6.4007" y2="576.1663" gradientTransform="matrix(1 0 0 1 0 -544.2756)">
		<stop  offset="0" style="stop-color:#00A0FF"/>
		<stop  offset="6.599999e-03" style="stop-color:#00A1FF"/>
		<stop  offset="0.2601" style="stop-color:#00BEFF"/>
		<stop  offset="0.5122" style="stop-color:#00D2FF"/>
		<stop  offset="0.7604" style="stop-color:#00DFFF"/>
		<stop  offset="1" style="stop-color:#00E3FF"/>
	</linearGradient>
	<path class="st1" d="M13.1,9.4c-0.4,0.4-0.6,1-0.6,1.8v27.6c0,0.8,0.2,1.4,0.6,1.8l0.1,0.1l15.6-15.5V25v-0.2L13.1,9.4L13.1,9.4z"
		/>
	
		<linearGradient id="SVGID_2_" gradientUnits="userSpaceOnUse" x1="42.606" y1="569.2776" x2="12.1356" y2="569.2776" gradientTransform="matrix(1 0 0 1 0 -544.2756)">
		<stop  offset="0" style="stop-color:#FFE000"/>
		<stop  offset="0.4087" style="stop-color:#FFBD00"/>
		<stop  offset="0.7754" style="stop-color:#FFA500"/>
		<stop  offset="1" style="stop-color:#FF9C00"/>
	</linearGradient>
	<path class="st2" d="M34,30.3l-5.2-5.2V25v-0.2l5.2-5.2l0.1,0.1l6.2,3.5c1.8,1,1.8,2.6,0,3.6l-6.2,3.5L34,30.3z"/>
	
		<linearGradient id="SVGID_3_" gradientUnits="userSpaceOnUse" x1="31.2468" y1="572.1064" x2="2.6552" y2="600.6979" gradientTransform="matrix(1 0 0 1 0 -544.2756)">
		<stop  offset="0" style="stop-color:#FF3A44"/>
		<stop  offset="1" style="stop-color:#C31162"/>
	</linearGradient>
	<path class="st3" d="M34.2,30.3L28.8,25L13.1,40.6c0.6,0.6,1.5,0.7,2.6,0.1L34.2,30.3"/>
	
		<linearGradient id="SVGID_4_" gradientUnits="userSpaceOnUse" x1="9.2258" y1="544.4258" x2="21.9911" y2="557.1912" gradientTransform="matrix(1 0 0 1 0 -544.2756)">
		<stop  offset="0" style="stop-color:#32A071"/>
		<stop  offset="6.850000e-02" style="stop-color:#2DA771"/>
		<stop  offset="0.4762" style="stop-color:#15CF74"/>
		<stop  offset="0.8009" style="stop-color:#06E775"/>
		<stop  offset="1" style="stop-color:#00F076"/>
	</linearGradient>
	<path class="st4" d="M34.2,19.7L15.8,9.3c-1.1-0.6-2-0.5-2.6,0.1L28.8,25L34.2,19.7z"/>
	<g>
		<path class="st5" d="M34,30.2L15.8,40.5c-1,0.6-1.9,0.5-2.5,0l0,0l-0.1,0.1l0,0l0.1,0.1l0,0c0.6,0.5,1.5,0.6,2.5,0l18.4-10.4
			L34,30.2z"/>
		<path class="st6" d="M13.1,40.4c-0.4-0.4-0.6-1-0.6-1.8v0.2c0,0.8,0.2,1.4,0.6,1.8V40.4L13.1,40.4z"/>
	</g>
	<path class="st6" d="M40.3,26.6L34,30.2l0.1,0.1l6.2-3.5c0.9-0.5,1.3-1.1,1.3-1.8l0,0C41.6,25.6,41.1,26.2,40.3,26.6z"/>
	<path class="st7" d="M15.8,9.5l24.6,13.9c0.8,0.4,1.2,1,1.3,1.6l0,0c0-0.7-0.4-1.3-1.3-1.8L15.8,9.3c-1.8-1-3.2-0.2-3.2,1.8v0.2
		C12.6,9.4,14,8.5,15.8,9.5z"/>
</g>
</svg>
