<?xml version="1.0" encoding="utf-8"?>
<!-- Generator: Adobe Illustrator 23.1.0, SVG Export Plug-In . SVG Version: 6.00 Build 0)  -->
<svg version="1.1" id="Layer_1" xmlns="http://www.w3.org/2000/svg" xmlns:xlink="http://www.w3.org/1999/xlink" x="0px" y="0px"
	 viewBox="0 0 170 50" style="enable-background:new 0 0 170 50;" xml:space="preserve">
<style type="text/css">
	.st0{fill:#FFFFFF;}
</style>
<g>
	<g>
		<g id="_Group_">
			<g id="_Group_2">
				<g id="_Group_3">
					<path id="_Path_" class="st0" d="M37.3,24.5c0-2.4,1.3-4.7,3.4-6c-1.3-1.9-3.4-3-5.7-3.1c-2.4-0.3-4.7,1.4-6,1.4
						s-3.1-1.4-5.2-1.4c-2.7,0.1-5.1,1.6-6.4,3.9c-2.8,4.8-0.7,11.9,2,15.8c1.3,1.9,2.9,4,4.9,4c2-0.1,2.7-1.3,5.1-1.3
						s3.1,1.3,5.2,1.2c2.1,0,3.5-1.9,4.8-3.8c1-1.4,1.7-2.9,2.2-4.4C38.9,29.7,37.3,27.2,37.3,24.5z"/>
					<path id="_Path_2" class="st0" d="M33.4,12.9c1.2-1.4,1.7-3.2,1.6-5c-1.8,0.2-3.4,1-4.6,2.4c-1.2,1.3-1.8,3.1-1.6,4.8
						C30.5,15.1,32.2,14.3,33.4,12.9z"/>
				</g>
			</g>
			<g>
				<path class="st0" d="M61.2,34.5h-6.5l-1.6,4.6h-2.8L56.5,22h2.9l6.2,17.1h-2.8L61.2,34.5z M55.3,32.4h5.2L58,24.8h-0.1
					L55.3,32.4z"/>
				<path class="st0" d="M78.9,32.9c0,3.9-2.1,6.4-5.2,6.4c-1.6,0.1-3.2-0.8-3.9-2.2h-0.1v6.2h-2.6V26.6h2.5v2.1l0,0
					c0.8-1.4,2.3-2.3,4-2.2C76.8,26.5,78.9,29,78.9,32.9z M76.3,32.9c0-2.5-1.3-4.2-3.3-4.2s-3.3,1.7-3.3,4.2s1.3,4.2,3.3,4.2
					C75,37.1,76.3,35.4,76.3,32.9L76.3,32.9z"/>
				<path class="st0" d="M92.7,32.9c0,3.9-2.1,6.4-5.2,6.4c-1.6,0.1-3.2-0.8-3.9-2.2h-0.1v6.2h-2.6V26.6h2.5v2.1l0,0
					c0.8-1.4,2.3-2.3,4-2.2C90.6,26.5,92.7,29,92.7,32.9z M90.1,32.9c0-2.5-1.3-4.2-3.3-4.2s-3.3,1.7-3.3,4.2s1.3,4.2,3.3,4.2
					C88.8,37.1,90.1,35.4,90.1,32.9z"/>
				<path class="st0" d="M101.8,34.3c0.2,1.7,1.8,2.8,4.1,2.8c2.2,0,3.7-1.1,3.7-2.6c0-1.3-0.9-2.1-3.2-2.7l-2.2-0.5
					c-3.1-0.8-4.6-2.2-4.6-4.6c0-3,2.6-5,6.2-5s6.1,2,6.2,5h-2.6c-0.2-1.7-1.6-2.7-3.6-2.7c-2.1,0-3.5,1-3.5,2.6
					c0,1.2,0.9,1.9,3.1,2.5l1.9,0.5c3.5,0.8,5,2.2,5,4.8c0,3.2-2.6,5.2-6.6,5.2c-3.8,0-6.4-2-6.5-5.1L101.8,34.3L101.8,34.3z"/>
				<path class="st0" d="M117.9,23.7v3h2.4v2h-2.4v6.9c0,1.1,0.5,1.6,1.5,1.6c0.3,0,0.6,0,0.8-0.1v2c-0.5,0.1-0.9,0.1-1.4,0.1
					c-2.5,0-3.5-1-3.5-3.4v-7.2h-1.8v-2h1.8v-3h2.6V23.7z"/>
				<path class="st0" d="M121.6,32.9c0-3.9,2.3-6.4,5.9-6.4c3.6,0,5.9,2.5,5.9,6.4s-2.3,6.4-5.9,6.4
					C123.9,39.3,121.6,36.8,121.6,32.9z M130.9,32.9c0-2.7-1.2-4.3-3.3-4.3c-2.1,0-3.3,1.6-3.3,4.3s1.2,4.3,3.3,4.3
					C129.6,37.2,130.9,35.6,130.9,32.9z"/>
				<path class="st0" d="M135.6,26.6h2.4v2.1h0.1c0.3-1.4,1.6-2.3,3-2.3c0.3,0,0.6,0,0.9,0.1V29c-0.4-0.1-0.8-0.2-1.2-0.2
					c-1.4-0.1-2.6,1.1-2.7,2.5c0,0.1,0,0.3,0,0.4v7.4h-2.6L135.6,26.6L135.6,26.6z"/>
				<path class="st0" d="M153.8,35.5c-0.3,2.3-2.6,3.8-5.4,3.8c-3.6,0-5.9-2.4-5.9-6.3s2.3-6.5,5.8-6.5s5.6,2.4,5.6,6.2v0.9h-8.8
					v0.2c-0.2,1.8,1.2,3.4,3,3.5c0.1,0,0.3,0,0.4,0c1.2,0.1,2.4-0.6,2.9-1.8L153.8,35.5L153.8,35.5z M145.1,31.7h6.2
					c0.1-1.7-1.2-3.1-2.8-3.2c-0.1,0-0.2,0-0.2,0C146.6,28.5,145.2,29.9,145.1,31.7L145.1,31.7L145.1,31.7z"/>
			</g>
		</g>
	</g>
	<g id="_Group_4">
		<g>
			<path class="st0" d="M55,9.1c2-0.1,3.8,1.4,3.9,3.4c0,0.2,0,0.5,0,0.7c0,2.6-1.4,4.1-3.9,4.1h-3V9.1H55L55,9.1z M53.3,16.1h1.6
				c1.4,0.1,2.7-1,2.7-2.4c0-0.2,0-0.4,0-0.5c0.2-1.4-0.8-2.7-2.2-2.9c-0.2,0-0.3,0-0.5,0h-1.6C53.3,10.2,53.3,16.1,53.3,16.1z"/>
			<path class="st0" d="M60.3,14.2c-0.2-1.6,1-3.1,2.7-3.2c1.6-0.2,3.1,1,3.2,2.7c0,0.2,0,0.4,0,0.6c0.2,1.6-1,3.1-2.6,3.2
				c-1.6,0.2-3.1-1-3.2-2.6C60.3,14.6,60.3,14.4,60.3,14.2z M64.9,14.2c0-1.3-0.6-2.1-1.7-2.1c-1.1,0-1.7,0.8-1.7,2.1
				c0,1.4,0.6,2.1,1.7,2.1C64.3,16.3,64.9,15.6,64.9,14.2L64.9,14.2z"/>
			<path class="st0" d="M74,17.3h-1.3l-1.3-4.6h-0.1L70,17.3h-1.3L67,11.1h1.2l1.1,4.7h0.1l1.3-4.7H72l1.3,4.7h0.1l1.1-4.7h1.2
				L74,17.3z"/>
			<path class="st0" d="M77.1,11.1h1.2v1h0.1c0.3-0.7,1.1-1.2,1.9-1.1c1.1-0.1,2.1,0.8,2.2,1.9c0,0.1,0,0.3,0,0.4v4h-1.2v-3.7
				c0-1-0.4-1.5-1.3-1.5c-0.8,0-1.5,0.6-1.5,1.4c0,0.1,0,0.1,0,0.2v3.6h-1.2C77.1,17.3,77.1,11.1,77.1,11.1z"/>
			<path class="st0" d="M84.4,8.7h1.2v8.6h-1.2V8.7z"/>
			<path class="st0" d="M87.3,14.2c-0.2-1.6,1-3.1,2.7-3.2c1.6-0.2,3.1,1,3.2,2.7c0,0.2,0,0.4,0,0.6c0.2,1.6-1,3.1-2.6,3.2
				c-1.6,0.2-3.1-1-3.2-2.6C87.3,14.6,87.3,14.4,87.3,14.2z M91.9,14.2c0-1.3-0.6-2.1-1.7-2.1s-1.7,0.8-1.7,2.1
				c0,1.4,0.6,2.1,1.7,2.1C91.3,16.3,91.9,15.6,91.9,14.2z"/>
			<path class="st0" d="M94.5,15.6c0-1.1,0.8-1.8,2.3-1.9l1.7-0.1v-0.5c0-0.7-0.4-1-1.3-1c-0.7,0-1.2,0.3-1.3,0.7h-1.2
				c0.1-1.1,1.1-1.8,2.5-1.8c1.6,0,2.4,0.8,2.4,2.1v4.2h-1.2v-0.9h-0.1c-0.4,0.6-1.1,1-1.9,1c-1,0.1-2-0.6-2.1-1.7
				C94.5,15.7,94.5,15.6,94.5,15.6z M98.5,15v-0.5L97,14.6c-0.9,0.1-1.2,0.3-1.2,0.9c0,0.6,0.5,0.9,1.2,0.9
				C97.7,16.5,98.4,15.9,98.5,15C98.5,15.1,98.5,15,98.5,15z"/>
			<path class="st0" d="M101.3,14.2c0-2,1-3.2,2.6-3.2c0.8,0,1.5,0.4,1.9,1.1h0.1V8.7h1.2v8.6h-1.2v-1h-0.1c-0.4,0.7-1.2,1.1-2,1.1
				C102.3,17.4,101.3,16.2,101.3,14.2z M102.6,14.2c0,1.3,0.6,2.1,1.7,2.1c1,0,1.7-0.8,1.7-2.1s-0.6-2.1-1.7-2.1
				C103.2,12.1,102.6,12.9,102.6,14.2L102.6,14.2z"/>
			<path class="st0" d="M112.2,14.2c-0.2-1.6,1-3.1,2.7-3.2c1.6-0.2,3.1,1,3.2,2.7c0,0.2,0,0.4,0,0.6c0.2,1.6-1,3.1-2.6,3.2
				c-1.6,0.2-3.1-1-3.2-2.6C112.2,14.6,112.2,14.4,112.2,14.2z M116.8,14.2c0-1.3-0.6-2.1-1.7-2.1s-1.7,0.8-1.7,2.1
				c0,1.4,0.6,2.1,1.7,2.1C116.2,16.3,116.8,15.6,116.8,14.2z"/>
			<path class="st0" d="M119.7,11.1h1.2v1h0.1c0.3-0.7,1.1-1.2,1.9-1.1c1.1-0.1,2.1,0.8,2.2,1.9c0,0.1,0,0.3,0,0.4v4h-1.2v-3.7
				c0-1-0.4-1.5-1.3-1.5c-0.8,0-1.5,0.6-1.5,1.4c0,0.1,0,0.1,0,0.2v3.6h-1.2L119.7,11.1L119.7,11.1z"/>
			<path class="st0" d="M131.9,9.5v1.6h1.3v1h-1.3v3.2c0,0.7,0.3,0.9,0.9,0.9c0.2,0,0.3,0,0.5,0v1c-0.2,0-0.4,0.1-0.7,0.1
				c-1.4,0-1.9-0.5-1.9-1.7v-3.5h-1v-1h1V9.5H131.9z"/>
			<path class="st0" d="M134.9,8.7h1.2v3.4h0.1c0.3-0.7,1.1-1.2,1.9-1.1c1.1-0.1,2.1,0.8,2.2,1.9c0,0.1,0,0.3,0,0.4v4h-1.2v-3.7
				c0-1-0.5-1.5-1.3-1.5c-0.8-0.1-1.5,0.5-1.6,1.3c0,0.1,0,0.2,0,0.2v3.6H135L134.9,8.7L134.9,8.7z"/>
			<path class="st0" d="M147.4,15.6c-0.3,1.2-1.5,1.9-2.7,1.8c-1.6,0-2.9-1.2-2.9-2.7c0-0.2,0-0.3,0-0.5c-0.2-1.6,0.9-3,2.5-3.2
				c0.1,0,0.3,0,0.4,0c1.7,0,2.8,1.2,2.8,3.1v0.4h-4.4v0.1c-0.1,0.9,0.6,1.7,1.5,1.8c0.1,0,0.1,0,0.2,0c0.6,0.1,1.2-0.2,1.5-0.8
				L147.4,15.6L147.4,15.6z M143.1,13.6h3.1c0.1-0.8-0.6-1.5-1.4-1.6h-0.1C143.9,12,143.1,12.7,143.1,13.6L143.1,13.6L143.1,13.6z"
				/>
		</g>
	</g>
</g>
<title>Download_on_the_App_Store_Badge_US-UK_RGB_wht_092917</title>
</svg>
