<?xml version="1.0" encoding="utf-8"?>
<!-- Generator: Adobe Illustrator 23.1.0, SVG Export Plug-In . SVG Version: 6.00 Build 0)  -->
<svg version="1.1" id="Layer_1" xmlns="http://www.w3.org/2000/svg" xmlns:xlink="http://www.w3.org/1999/xlink" x="0px" y="0px"
	 viewBox="0 0 220 26" style="enable-background:new 0 0 220 26;" xml:space="preserve">
<style type="text/css">
	.st0{fill:#FFFFFF;}
</style>
<g>
	<path class="st0" d="M1.2,25.29V0.75h4.18c1.2,0,2.05,0.16,2.55,0.48c0.61,0.43,0.92,1.21,0.92,2.34v6.22
		c0,0.93-0.19,1.59-0.56,1.99c-0.37,0.39-1,0.62-1.88,0.66v0.07c1.7,0.07,2.55,0.83,2.55,2.28v7.68c0,1.13-0.32,1.9-0.95,2.31
		c-0.5,0.34-1.37,0.51-2.61,0.51L1.2,25.29L1.2,25.29z M3.44,11.59h1.5c1.11,0,1.66-0.59,1.66-1.77v-5.5c0-1.11-0.63-1.67-1.9-1.67
		H3.44L3.44,11.59L3.44,11.59z M3.44,23.38H4.8c1.27,0,1.9-0.55,1.9-1.66v-6.73c0-0.99-0.59-1.49-1.77-1.49h-1.5
		C3.44,13.5,3.44,23.38,3.44,23.38z"/>
	<path class="st0" d="M23.01,21.35V4.7c0-2.76,1.31-4.15,3.94-4.15c2.63,0,3.94,1.38,3.94,4.15v16.65c0,2.76-1.31,4.15-3.94,4.15
		S23.01,24.11,23.01,21.35z M25.26,4.76v16.51c0,1.54,0.57,2.31,1.7,2.31c1.13,0,1.7-0.77,1.7-2.31V4.76c0-1.54-0.57-2.31-1.7-2.31
		C25.82,2.45,25.26,3.22,25.26,4.76z"/>
	<path class="st0" d="M44.93,25.29V0.75h4.18c1.2,0,2.05,0.16,2.55,0.48c0.61,0.43,0.92,1.21,0.92,2.34v6.22
		c0,0.93-0.19,1.59-0.56,1.99c-0.37,0.39-1,0.62-1.88,0.66v0.07c1.7,0.07,2.55,0.83,2.55,2.28v7.68c0,1.13-0.32,1.9-0.95,2.31
		c-0.5,0.34-1.37,0.51-2.62,0.51L44.93,25.29L44.93,25.29z M47.17,11.59h1.5c1.11,0,1.66-0.59,1.66-1.77v-5.5
		c0-1.11-0.63-1.67-1.9-1.67h-1.26L47.17,11.59L47.17,11.59z M47.17,23.38h1.36c1.27,0,1.9-0.55,1.9-1.66v-6.73
		c0-0.99-0.59-1.49-1.77-1.49h-1.5L47.17,23.38L47.17,23.38z"/>
	<path class="st0" d="M66.78,25.29V0.75h4.18c1.2,0,2.05,0.16,2.55,0.48c0.61,0.43,0.92,1.21,0.92,2.34v6.22
		c0,0.93-0.19,1.59-0.56,1.99c-0.37,0.39-1,0.62-1.89,0.66v0.07c1.7,0.07,2.55,0.83,2.55,2.28v7.68c0,1.13-0.32,1.9-0.95,2.31
		c-0.5,0.34-1.37,0.51-2.62,0.51L66.78,25.29L66.78,25.29z M69.02,11.59h1.5c1.11,0,1.66-0.59,1.66-1.77v-5.5
		c0-1.11-0.63-1.67-1.9-1.67h-1.26L69.02,11.59L69.02,11.59z M69.02,23.38h1.36c1.27,0,1.9-0.55,1.9-1.66v-6.73
		c0-0.99-0.59-1.49-1.77-1.49h-1.5L69.02,23.38L69.02,23.38z"/>
	<path class="st0" d="M88.59,25.29V0.75h2.24v24.53L88.59,25.29L88.59,25.29z"/>
	<path class="st0" d="M120.09,25.29V0.75h4.18c1.2,0,2.05,0.16,2.55,0.48c0.61,0.43,0.92,1.21,0.92,2.34v6.22
		c0,0.93-0.19,1.59-0.56,1.99c-0.37,0.39-1,0.62-1.89,0.66v0.07c1.7,0.07,2.55,0.83,2.55,2.28v7.68c0,1.13-0.32,1.9-0.95,2.31
		c-0.5,0.34-1.37,0.51-2.62,0.51L120.09,25.29L120.09,25.29z M122.33,11.59h1.49c1.11,0,1.66-0.59,1.66-1.77v-5.5
		c0-1.11-0.63-1.67-1.9-1.67h-1.26L122.33,11.59L122.33,11.59z M122.33,23.38h1.36c1.27,0,1.9-0.55,1.9-1.66v-6.73
		c0-0.99-0.59-1.49-1.77-1.49h-1.5L122.33,23.38L122.33,23.38z"/>
	<path class="st0" d="M147.44,25.29v-10.3c0-0.99-0.59-1.49-1.77-1.49h-1.5v11.79h-2.24V0.75h4.18c1.2,0,2.05,0.16,2.55,0.48
		c0.61,0.43,0.92,1.21,0.92,2.34v6.22c0,0.93-0.19,1.59-0.56,1.99c-0.37,0.39-1,0.62-1.89,0.66v0.07c1.7,0.11,2.55,0.87,2.55,2.28
		v10.5L147.44,25.29L147.44,25.29z M144.18,11.59h1.5c1.11,0,1.66-0.59,1.66-1.77v-5.5c0-1.11-0.63-1.67-1.9-1.67h-1.26
		L144.18,11.59L144.18,11.59z"/>
	<path class="st0" d="M163.75,21.35V4.7c0-2.76,1.31-4.15,3.94-4.15c2.63,0,3.94,1.38,3.94,4.15v16.65c0,2.76-1.32,4.15-3.94,4.15
		C165.06,25.49,163.75,24.11,163.75,21.35z M165.99,4.76v16.51c0,1.54,0.57,2.31,1.7,2.31c1.13,0,1.7-0.77,1.7-2.31V4.76
		c0-1.54-0.57-2.31-1.7-2.31C166.56,2.45,165.99,3.22,165.99,4.76z"/>
	<path class="st0" d="M194.77,22.71l1.7-21.95h2.11l-2.48,24.53h-2.92l-1.7-21.81h-0.07l-1.7,21.81h-2.92l-2.48-24.53h2.11
		l1.83,21.95h0.07l1.73-21.95h2.79l1.87,21.95L194.77,22.71L194.77,22.71z"/>
	<path class="st0" d="M217.23,0.75h1.97v24.53h-3.23l-2.85-21.81v21.81h-1.97V0.75h3.3l2.78,21V0.75z"/>
</g>
</svg>
