<?xml version="1.0" encoding="utf-8"?>
<!-- Generator: Adobe Illustrator 23.1.0, SVG Export Plug-In . SVG Version: 6.00 Build 0)  -->
<svg version="1.1" id="Layer_1" xmlns="http://www.w3.org/2000/svg" xmlns:xlink="http://www.w3.org/1999/xlink" x="0px" y="0px"
	 viewBox="0 0 100 100" style="enable-background:new 0 0 100 100;" xml:space="preserve">
<style type="text/css">
	.st0{fill:#f3f3f3;}
</style>
<g>
	<path class="st0" d="M35.8,44.6c0.8-5.3,5.4-9.4,10.9-9.4c4.7,0,8.6,2.9,10.2,7c0.8-0.2,1.7-0.3,2.6-0.3c6.1,0,11,4.9,11,11
		c0,0.4,0,0.8-0.1,1.2c2.3,0.5,4.3,1.4,6.2,2.7c2.6-4.5,4-9.7,4-15.2c0-16.9-13.7-30.7-30.7-30.7c-16.9,0-30.7,13.7-30.7,30.7
		c0,4.8,1.1,9.3,3.1,13.4c0,0,0,0,0,0c0.7-1.3,1.5-2.6,2.6-3.7c5.7-6.3,15.3-7.2,22-2.2c0,0-0.1,0-0.1-0.1
		C43.7,46,39.8,44.6,35.8,44.6L35.8,44.6z M34.4,43.2c0.3-1.7,0.8-4.7,1.1-6.3c-2.5,2.4-1.9,5.8-1.5,7.1c-0.6-1.7-2.2-6.6-2.7-7.6
		c-0.1-0.2-0.2-0.4-0.4-0.6c0,0,0,0,0,0c0,0.4-0.7,4,3.3,8.7c-4.4-4.4-7.9-4.1-8.4-4.1c0,0,0,0,0,0c0.2,0.2,0.4,0.3,0.6,0.4
		c0.9,0.5,5.6,2.7,7.3,3.4c-1.3-0.5-4.5-1.5-7.2,0.8c1.6-0.1,4.7-0.3,6.4-0.4c-1.7,0.3-4.7,1.4-8.2,5.1c0,0-1.2-1.9,1.6-4.4
		c0.1-0.1,0.2-0.1,0.2-0.2c-0.5,0-0.9,0-1.1,0c-0.8-0.1-3.3-0.2-3.1-2.2c0.3-2.4,3.2-2.4,3.6-2.4c-1.1-0.9-2.2-3,0.1-5
		c2.3-2,4.2-0.8,5,0.4c0-0.4,0.4-3.3,2.7-3.3c2.1,0,1.9,2.5,1.9,3.3c0,0.2,0,0.5-0.1,1.1c0.1-0.1,0.1-0.1,0.2-0.2
		c2.8-2.5,4.6-1.1,4.6-1.1C36.2,38.6,34.8,41.5,34.4,43.2z"/>
	<g>
		<path class="st0" d="M4,76.8V66.8h2.4v10.1H4z M5.1,68.9v-2.2h5.8v2.2H5.1z M5.1,73v-2h5.2v2H5.1z"/>
		<path class="st0" d="M12.9,76.8V66.8h2.4v7.9h4.5v2.2H12.9z"/>
		<path class="st0" d="M25.9,77c-0.8,0-1.5-0.1-2.1-0.4s-1.2-0.6-1.7-1.1c-0.5-0.5-0.8-1-1.1-1.7c-0.3-0.6-0.4-1.3-0.4-2.1
			s0.1-1.5,0.4-2.1c0.3-0.6,0.6-1.2,1.1-1.7c0.5-0.5,1-0.8,1.7-1.1s1.3-0.4,2.1-0.4s1.5,0.1,2.1,0.4c0.6,0.3,1.2,0.6,1.7,1.1
			c0.5,0.5,0.8,1,1.1,1.7c0.3,0.6,0.4,1.3,0.4,2.1c0,0.7-0.1,1.4-0.4,2.1c-0.3,0.6-0.6,1.2-1.1,1.7c-0.5,0.5-1,0.8-1.7,1.1
			C27.4,76.8,26.7,77,25.9,77z M25.9,74.7c0.4,0,0.8-0.1,1.1-0.2c0.3-0.1,0.6-0.3,0.9-0.6c0.2-0.3,0.4-0.6,0.6-0.9
			c0.1-0.4,0.2-0.7,0.2-1.2c0-0.4-0.1-0.8-0.2-1.2c-0.1-0.4-0.3-0.7-0.6-0.9c-0.2-0.3-0.5-0.5-0.9-0.6c-0.3-0.1-0.7-0.2-1.1-0.2
			c-0.4,0-0.8,0.1-1.1,0.2c-0.3,0.1-0.6,0.3-0.9,0.6c-0.2,0.3-0.4,0.6-0.6,0.9c-0.1,0.4-0.2,0.7-0.2,1.2c0,0.4,0.1,0.8,0.2,1.2
			c0.1,0.4,0.3,0.7,0.6,0.9c0.2,0.3,0.5,0.5,0.9,0.6C25.2,74.6,25.5,74.7,25.9,74.7z"/>
		<path class="st0" d="M36.4,77c-0.7,0-1.3-0.1-1.8-0.2c-0.5-0.2-1-0.4-1.4-0.7c-0.4-0.3-0.8-0.7-1.1-1.1l1.5-1.7
			c0.5,0.6,1,1.1,1.4,1.3s1,0.3,1.5,0.3c0.3,0,0.5,0,0.7-0.1c0.2-0.1,0.4-0.2,0.5-0.3c0.1-0.1,0.2-0.3,0.2-0.5c0-0.1,0-0.3-0.1-0.4
			c-0.1-0.1-0.2-0.2-0.3-0.3c-0.1-0.1-0.3-0.2-0.4-0.2c-0.2-0.1-0.4-0.1-0.5-0.2c-0.2-0.1-0.4-0.1-0.6-0.1c-0.6-0.1-1-0.3-1.5-0.5
			c-0.4-0.2-0.8-0.4-1-0.7c-0.3-0.3-0.5-0.6-0.6-0.9c-0.1-0.3-0.2-0.7-0.2-1.1c0-0.5,0.1-0.9,0.3-1.2c0.2-0.4,0.5-0.7,0.8-1
			c0.3-0.3,0.8-0.5,1.2-0.6c0.5-0.1,0.9-0.2,1.4-0.2c0.7,0,1.2,0.1,1.7,0.2c0.5,0.1,0.9,0.3,1.2,0.6c0.3,0.3,0.6,0.6,0.9,0.9
			l-1.5,1.5c-0.2-0.2-0.4-0.5-0.7-0.6c-0.2-0.2-0.5-0.3-0.7-0.4c-0.3-0.1-0.5-0.1-0.8-0.1c-0.3,0-0.5,0-0.7,0.1
			c-0.2,0.1-0.4,0.2-0.5,0.3c-0.1,0.1-0.2,0.3-0.2,0.5c0,0.2,0,0.3,0.1,0.4c0.1,0.1,0.2,0.2,0.4,0.3c0.2,0.1,0.3,0.2,0.6,0.2
			c0.2,0.1,0.4,0.1,0.7,0.2c0.5,0.1,1,0.2,1.4,0.4c0.4,0.2,0.8,0.4,1.1,0.6c0.3,0.2,0.6,0.5,0.7,0.9c0.2,0.3,0.3,0.7,0.3,1.2
			c0,0.7-0.2,1.3-0.5,1.8c-0.3,0.5-0.8,0.9-1.4,1.1C37.8,76.8,37.1,77,36.4,77z"/>
		<path class="st0" d="M46.8,76.8V66.8h2.2l5.3,7.2l-0.5-0.1c0-0.3-0.1-0.6-0.1-0.9c0-0.3-0.1-0.6-0.1-0.8c0-0.3,0-0.6-0.1-0.8
			c0-0.3,0-0.6,0-0.9c0-0.3,0-0.7,0-1.1v-2.5h2.4v10.1h-2.2l-5.5-7.4l0.7,0.1c0,0.5,0.1,0.9,0.1,1.2c0,0.3,0.1,0.6,0.1,0.9
			c0,0.2,0,0.5,0.1,0.7c0,0.2,0,0.4,0,0.6c0,0.2,0,0.4,0,0.7v3.4H46.8z"/>
		<path class="st0" d="M62.6,76.9c-0.8,0-1.6-0.2-2.2-0.5s-1.2-0.8-1.5-1.4c-0.4-0.6-0.6-1.3-0.6-2v-6.2h2.5v6.1
			c0,0.4,0.1,0.7,0.2,1c0.2,0.3,0.4,0.5,0.7,0.7c0.3,0.2,0.6,0.3,0.9,0.3c0.4,0,0.7-0.1,1-0.3c0.3-0.2,0.5-0.4,0.7-0.7
			c0.2-0.3,0.3-0.6,0.3-1v-6.1h2.4V73c0,0.8-0.2,1.4-0.6,2c-0.4,0.6-0.9,1.1-1.5,1.4C64.2,76.7,63.4,76.9,62.6,76.9z"/>
		<path class="st0" d="M69.4,76.8V66.8h4.4c0.7,0,1.3,0.1,1.8,0.3c0.5,0.2,0.8,0.5,1.1,0.8c0.2,0.4,0.4,0.8,0.4,1.3
			c0,0.6-0.1,1.1-0.4,1.5c-0.3,0.4-0.7,0.7-1.2,0.8l0-0.3c0.5,0.1,0.8,0.3,1.2,0.5c0.3,0.2,0.6,0.5,0.8,0.9c0.2,0.4,0.3,0.7,0.3,1.2
			c0,0.5-0.1,1-0.3,1.3c-0.2,0.4-0.4,0.7-0.7,1c-0.3,0.3-0.7,0.5-1.1,0.6c-0.4,0.1-0.9,0.2-1.4,0.2H69.4z M71.7,70.8h1.8
			c0.2,0,0.5,0,0.6-0.1c0.2-0.1,0.3-0.2,0.4-0.3c0.1-0.1,0.1-0.3,0.1-0.5c0-0.3-0.1-0.5-0.3-0.7c-0.2-0.2-0.5-0.3-0.9-0.3h-1.7V70.8
			z M71.7,74.8h2.2c0.3,0,0.5,0,0.7-0.1c0.2-0.1,0.3-0.2,0.4-0.4c0.1-0.2,0.2-0.4,0.2-0.6c0-0.2-0.1-0.4-0.2-0.6
			c-0.1-0.2-0.3-0.3-0.5-0.4c-0.2-0.1-0.4-0.1-0.7-0.1h-2.1V74.8z"/>
		<path class="st0" d="M79.5,76.8V66.8h7v2.1h-4.6v5.9h4.8v2.1H79.5z M80.6,72.7v-2h5.2v2H80.6z"/>
		<path class="st0" d="M92.1,77c-0.7,0-1.3-0.1-1.8-0.2c-0.5-0.2-1-0.4-1.4-0.7c-0.4-0.3-0.8-0.7-1.1-1.1l1.5-1.7
			c0.5,0.6,1,1.1,1.4,1.3c0.5,0.2,1,0.3,1.5,0.3c0.3,0,0.5,0,0.7-0.1c0.2-0.1,0.4-0.2,0.5-0.3c0.1-0.1,0.2-0.3,0.2-0.5
			c0-0.1,0-0.3-0.1-0.4c-0.1-0.1-0.2-0.2-0.3-0.3c-0.1-0.1-0.3-0.2-0.4-0.2c-0.2-0.1-0.4-0.1-0.5-0.2c-0.2-0.1-0.4-0.1-0.6-0.1
			c-0.6-0.1-1-0.3-1.5-0.5c-0.4-0.2-0.8-0.4-1-0.7c-0.3-0.3-0.5-0.6-0.6-0.9c-0.1-0.3-0.2-0.7-0.2-1.1c0-0.5,0.1-0.9,0.3-1.2
			c0.2-0.4,0.5-0.7,0.8-1c0.3-0.3,0.8-0.5,1.2-0.6c0.5-0.1,0.9-0.2,1.4-0.2c0.7,0,1.2,0.1,1.7,0.2c0.5,0.1,0.9,0.3,1.2,0.6
			c0.3,0.3,0.6,0.6,0.9,0.9l-1.5,1.5c-0.2-0.2-0.4-0.5-0.7-0.6c-0.2-0.2-0.5-0.3-0.7-0.4c-0.3-0.1-0.5-0.1-0.8-0.1
			c-0.3,0-0.5,0-0.7,0.1c-0.2,0.1-0.4,0.2-0.5,0.3c-0.1,0.1-0.2,0.3-0.2,0.5c0,0.2,0,0.3,0.1,0.4c0.1,0.1,0.2,0.2,0.4,0.3
			c0.2,0.1,0.3,0.2,0.6,0.2c0.2,0.1,0.4,0.1,0.7,0.2c0.5,0.1,1,0.2,1.4,0.4c0.4,0.2,0.8,0.4,1.1,0.6c0.3,0.2,0.6,0.5,0.7,0.9
			c0.2,0.3,0.3,0.7,0.3,1.2c0,0.7-0.2,1.3-0.5,1.8c-0.3,0.5-0.8,0.9-1.4,1.1C93.5,76.8,92.8,77,92.1,77z"/>
	</g>
	<g>
		<path class="st0" d="M25.5,89.2c-0.3,0-0.6,0-0.9-0.1c-0.3-0.1-0.5-0.2-0.7-0.4c-0.2-0.2-0.4-0.4-0.6-0.6l0.5-0.5
			c0.3,0.4,0.5,0.7,0.8,0.8c0.3,0.2,0.6,0.2,1,0.2c0.3,0,0.5,0,0.7-0.1c0.2-0.1,0.4-0.2,0.5-0.4c0.1-0.2,0.2-0.3,0.2-0.5
			c0-0.1,0-0.3-0.1-0.4c0-0.1-0.1-0.2-0.2-0.3c-0.1-0.1-0.2-0.2-0.3-0.2s-0.3-0.1-0.4-0.2c-0.2-0.1-0.3-0.1-0.5-0.2
			c-0.3-0.1-0.6-0.2-0.8-0.2c-0.2-0.1-0.4-0.2-0.6-0.3c-0.2-0.1-0.3-0.3-0.3-0.5c-0.1-0.2-0.1-0.4-0.1-0.6c0-0.2,0.1-0.5,0.2-0.7
			c0.1-0.2,0.2-0.4,0.4-0.5c0.2-0.1,0.4-0.3,0.6-0.3C25,83,25.3,83,25.6,83c0.3,0,0.6,0,0.8,0.1c0.2,0.1,0.5,0.2,0.7,0.4
			c0.2,0.2,0.4,0.4,0.5,0.6l-0.5,0.5c-0.1-0.2-0.3-0.4-0.4-0.5c-0.2-0.1-0.3-0.2-0.5-0.3c-0.2-0.1-0.4-0.1-0.6-0.1
			c-0.3,0-0.5,0-0.7,0.1c-0.2,0.1-0.3,0.2-0.5,0.4c-0.1,0.2-0.2,0.3-0.2,0.5c0,0.1,0,0.3,0.1,0.4c0.1,0.1,0.1,0.2,0.2,0.3
			c0.1,0.1,0.3,0.2,0.4,0.2c0.2,0.1,0.4,0.1,0.7,0.2c0.3,0.1,0.6,0.2,0.8,0.3c0.2,0.1,0.4,0.2,0.6,0.3s0.3,0.3,0.4,0.5
			c0.1,0.2,0.1,0.4,0.1,0.6c0,0.4-0.1,0.7-0.3,0.9c-0.2,0.3-0.4,0.5-0.7,0.6C26.3,89.1,25.9,89.2,25.5,89.2z"/>
		<path class="st0" d="M34.3,89.1v-5.4h-1.7v-0.7h4.2v0.7H35v5.4H34.3z"/>
		<path class="st0" d="M44.5,89.2c-0.5,0-0.9-0.1-1.2-0.3s-0.6-0.5-0.8-0.8c-0.2-0.4-0.3-0.8-0.3-1.2v-3.7h0.7v3.7
			c0,0.3,0.1,0.6,0.2,0.9c0.1,0.3,0.4,0.5,0.6,0.6c0.3,0.2,0.5,0.2,0.9,0.2c0.3,0,0.6-0.1,0.9-0.2c0.3-0.2,0.5-0.4,0.6-0.6
			c0.1-0.3,0.2-0.6,0.2-0.9v-3.7h0.6v3.7c0,0.5-0.1,0.9-0.3,1.2c-0.2,0.4-0.5,0.6-0.8,0.8C45.3,89.1,44.9,89.2,44.5,89.2z"/>
		<path class="st0" d="M52.8,89.1v-6h2.3c0.4,0,0.8,0.1,1.1,0.2c0.3,0.1,0.6,0.4,0.9,0.6c0.3,0.3,0.4,0.6,0.6,1
			c0.1,0.4,0.2,0.8,0.2,1.2c0,0.4-0.1,0.8-0.2,1.2c-0.1,0.4-0.3,0.7-0.6,1c-0.3,0.3-0.5,0.5-0.9,0.6c-0.3,0.1-0.7,0.2-1.1,0.2H52.8z
			 M53.5,88.6l-0.1-0.1H55c0.3,0,0.6-0.1,0.9-0.2c0.3-0.1,0.5-0.3,0.7-0.5c0.2-0.2,0.3-0.5,0.4-0.7c0.1-0.3,0.2-0.6,0.2-1
			c0-0.4-0.1-0.7-0.2-1c-0.1-0.3-0.3-0.5-0.5-0.7c-0.2-0.2-0.4-0.4-0.7-0.5c-0.3-0.1-0.6-0.2-0.9-0.2h-1.7l0.1-0.1V88.6z"/>
		<path class="st0" d="M63,89.1v-0.6h1v-4.8h-1v-0.6h2.6v0.6h-1v4.8h1v0.6H63z"/>
		<path class="st0" d="M73.7,89.2c-0.4,0-0.8-0.1-1.2-0.2c-0.4-0.2-0.7-0.4-0.9-0.6c-0.3-0.3-0.5-0.6-0.6-1
			c-0.1-0.4-0.2-0.8-0.2-1.2c0-0.4,0.1-0.9,0.2-1.2c0.1-0.4,0.4-0.7,0.6-1c0.3-0.3,0.6-0.5,0.9-0.6c0.4-0.2,0.8-0.2,1.2-0.2
			c0.4,0,0.8,0.1,1.2,0.2c0.4,0.2,0.7,0.4,0.9,0.6c0.3,0.3,0.5,0.6,0.6,1c0.1,0.4,0.2,0.8,0.2,1.2c0,0.4-0.1,0.9-0.2,1.2
			c-0.1,0.4-0.4,0.7-0.6,1c-0.3,0.3-0.6,0.5-0.9,0.6C74.6,89.1,74.2,89.2,73.7,89.2z M73.7,88.5c0.3,0,0.6-0.1,0.9-0.2
			c0.3-0.1,0.5-0.3,0.7-0.5c0.2-0.2,0.4-0.5,0.5-0.8c0.1-0.3,0.2-0.6,0.2-1c0-0.4-0.1-0.7-0.2-1c-0.1-0.3-0.3-0.6-0.5-0.8
			c-0.2-0.2-0.4-0.4-0.7-0.5c-0.3-0.1-0.6-0.2-0.9-0.2c-0.3,0-0.6,0.1-0.9,0.2c-0.3,0.1-0.5,0.3-0.7,0.5c-0.2,0.2-0.4,0.5-0.5,0.8
			c-0.1,0.3-0.2,0.6-0.2,1c0,0.4,0.1,0.7,0.2,1c0.1,0.3,0.3,0.6,0.5,0.8c0.2,0.2,0.4,0.4,0.7,0.5C73.1,88.5,73.4,88.5,73.7,88.5z"/>
	</g>
</g>
</svg>
