<?xml version="1.0" encoding="utf-8"?>
<!-- Generator: Adobe Illustrator 23.1.0, SVG Export Plug-In . SVG Version: 6.00 Build 0)  -->
<svg version="1.1" id="Layer_1" xmlns="http://www.w3.org/2000/svg" xmlns:xlink="http://www.w3.org/1999/xlink" x="0px" y="0px"
	 viewBox="0 0 100 100" style="enable-background:new 0 0 100 100;" xml:space="preserve">
<style type="text/css">
	.st0{fill:#F8F8F8;}
</style>
<path class="st0" d="M75.3,84.2c-0.2-0.2-0.4-0.4-0.7-0.5c-0.3-0.1-0.6-0.2-0.9-0.2s-0.6,0.1-0.9,0.2c-0.3,0.1-0.5,0.3-0.7,0.5
	c-0.2,0.2-0.4,0.5-0.5,0.8c-0.1,0.3-0.2,0.6-0.2,1s0.1,0.7,0.2,1c0.1,0.3,0.3,0.6,0.5,0.8c0.2,0.2,0.4,0.4,0.7,0.5
	c0.3,0.2,0.6,0.2,0.9,0.2s0.6-0.1,0.9-0.2c0.3-0.1,0.5-0.3,0.7-0.5s0.4-0.5,0.5-0.8c0.1-0.3,0.2-0.6,0.2-1s-0.1-0.7-0.2-1
	C75.7,84.7,75.5,84.4,75.3,84.2z"/>
<path class="st0" d="M74.5,72.7c-0.2-0.1-0.4-0.1-0.7-0.1h-2.1v2.2h2.2c0.3,0,0.5,0,0.7-0.1c0.2-0.1,0.3-0.2,0.4-0.4
	s0.2-0.4,0.2-0.6s-0.1-0.4-0.2-0.6C74.9,72.9,74.7,72.8,74.5,72.7z"/>
<path class="st0" d="M74.1,70.7c0.2-0.1,0.3-0.2,0.4-0.3c0.1-0.1,0.1-0.3,0.1-0.5c0-0.3-0.1-0.5-0.3-0.7s-0.5-0.3-0.9-0.3h-1.7v1.9
	h1.8C73.7,70.8,74,70.8,74.1,70.7z"/>
<path class="st0" d="M35.7,36.8c-0.1,0.1-0.1,0.1-0.2,0.2c0.1-0.6,0.1-0.9,0.1-1.1c0-0.8,0.2-3.3-1.9-3.3c-2.3,0-2.7,2.9-2.7,3.3
	c-0.8-1.2-2.7-2.4-5-0.4s-1.2,4.1-0.1,5c-0.4,0-3.3,0-3.6,2.4c-0.2,2,2.3,2.1,3.1,2.2c0.2,0,0.6,0,1.1,0c0,0.1-0.1,0.1-0.2,0.2
	c-2.8,2.5-1.6,4.4-1.6,4.4c3.5-3.7,6.5-4.8,8.2-5.1c-1.7,0.1-4.8,0.3-6.4,0.4c2.7-2.3,5.9-1.3,7.2-0.8c-1.7-0.7-6.4-2.9-7.3-3.4
	c-0.2-0.1-0.4-0.2-0.6-0.4c0.5,0,4-0.3,8.4,4.1c-4-4.7-3.3-8.3-3.3-8.7c0.2,0.2,0.3,0.4,0.4,0.6c0.5,1,2.1,5.9,2.7,7.6
	c-0.4-1.3-1-4.7,1.5-7.1c-0.3,1.6-0.8,4.6-1.1,6.3c0.4-1.7,1.8-4.6,5.9-7.5C40.3,35.7,38.5,34.3,35.7,36.8z"/>
<path class="st0" d="M27.9,69.7c-0.2-0.3-0.5-0.5-0.9-0.6c-0.3-0.1-0.7-0.2-1.1-0.2c-0.4,0-0.8,0.1-1.1,0.2
	c-0.3,0.1-0.6,0.3-0.9,0.6c-0.2,0.3-0.4,0.6-0.6,0.9c-0.1,0.4-0.2,0.7-0.2,1.2c0,0.4,0.1,0.8,0.2,1.2c0.1,0.4,0.3,0.7,0.6,0.9
	c0.2,0.3,0.5,0.5,0.9,0.6c0.4,0.1,0.7,0.2,1.1,0.2c0.4,0,0.8-0.1,1.1-0.2s0.6-0.3,0.9-0.6c0.2-0.3,0.4-0.6,0.6-0.9
	c0.1-0.4,0.2-0.7,0.2-1.2c0-0.4-0.1-0.8-0.2-1.2C28.4,70.2,28.2,69.9,27.9,69.7z"/>
<path class="st0" d="M56.5,84.4c-0.2-0.2-0.4-0.4-0.7-0.5c-0.3-0.1-0.6-0.2-0.9-0.2h-1.6v4.9h0.2l-0.1-0.1H55c0.3,0,0.6-0.1,0.9-0.2
	c0.3-0.1,0.5-0.3,0.7-0.5c0.2-0.2,0.3-0.5,0.4-0.7c0.1-0.3,0.2-0.6,0.2-1c0-0.4-0.1-0.7-0.2-1C56.9,84.8,56.7,84.6,56.5,84.4z"/>
<path class="st0" d="M0,0v100h100V0H0z M10.9,68.9H6.4V71h3.9v2H6.4v3.9H4v-0.1v-10h1.1v-0.1h5.8V68.9z M19.8,76.9h-6.9v-0.1v-10
	h2.4v7.9h4.5V76.9z M24.3,85.1c0.1,0.1,0.1,0.2,0.2,0.3c0.1,0.1,0.3,0.2,0.4,0.2c0.2,0.1,0.4,0.1,0.7,0.2c0.3,0.1,0.6,0.2,0.8,0.3
	c0.2,0.1,0.4,0.2,0.6,0.3c0.2,0.1,0.3,0.3,0.4,0.5c0.1,0.2,0.1,0.4,0.1,0.6c0,0.4-0.1,0.7-0.3,0.9c-0.2,0.3-0.4,0.5-0.7,0.6
	c-0.2,0.1-0.6,0.2-1,0.2c-0.3,0-0.6,0-0.9-0.1c-0.3-0.1-0.5-0.2-0.7-0.4c-0.2-0.2-0.4-0.4-0.6-0.6l0.5-0.5c0.3,0.4,0.5,0.7,0.8,0.8
	c0.3,0.2,0.6,0.2,1,0.2c0.3,0,0.5,0,0.7-0.1s0.4-0.2,0.5-0.4c0.1-0.2,0.2-0.3,0.2-0.5c0-0.1,0-0.3-0.1-0.4c0-0.1-0.1-0.2-0.2-0.3
	c-0.1-0.1-0.2-0.2-0.3-0.2c-0.1,0-0.3-0.1-0.4-0.2c-0.2-0.1-0.3-0.1-0.5-0.2c-0.3-0.1-0.6-0.2-0.8-0.2c-0.2-0.1-0.4-0.2-0.6-0.3
	c-0.2-0.1-0.3-0.3-0.3-0.5c-0.1-0.2-0.1-0.4-0.1-0.6s0.1-0.5,0.2-0.7c0.1-0.2,0.2-0.4,0.4-0.5s0.4-0.3,0.6-0.3
	C25,83,25.3,83,25.6,83c0.3,0,0.6,0,0.8,0.1c0.2,0.1,0.5,0.2,0.7,0.4c0.2,0.2,0.4,0.4,0.5,0.6l-0.5,0.5c-0.1-0.2-0.3-0.4-0.4-0.5
	c-0.2-0.1-0.3-0.2-0.5-0.3c-0.2-0.1-0.4-0.1-0.6-0.1c-0.3,0-0.5,0-0.7,0.1c-0.2,0.1-0.3,0.2-0.5,0.4c-0.1,0.2-0.2,0.3-0.2,0.5
	C24.2,84.8,24.2,85,24.3,85.1z M30.8,73.8c-0.3,0.6-0.6,1.2-1.1,1.7s-1,0.8-1.7,1.1c-0.6,0.2-1.3,0.4-2.1,0.4
	c-0.8,0-1.5-0.1-2.1-0.4c-0.6-0.3-1.2-0.6-1.7-1.1s-0.8-1-1.1-1.7c-0.3-0.6-0.4-1.3-0.4-2.1s0.1-1.5,0.4-2.1
	c0.3-0.6,0.6-1.2,1.1-1.7s1-0.8,1.7-1.1s1.3-0.4,2.1-0.4c0.8,0,1.5,0.1,2.1,0.4c0.6,0.3,1.2,0.6,1.7,1.1s0.8,1,1.1,1.7
	c0.3,0.6,0.4,1.3,0.4,2.1C31.2,72.4,31.1,73.1,30.8,73.8z M36.8,83.7H35v5.4h-0.7v-5.4h-1.7V83h4.2V83.7z M39.9,75.6
	c-0.3,0.5-0.8,0.9-1.4,1.1c-0.7,0.1-1.4,0.3-2.1,0.3c-0.7,0-1.3-0.1-1.8-0.2c-0.5-0.2-1-0.4-1.4-0.7c-0.4-0.3-0.8-0.7-1.1-1.1
	l1.5-1.7c0.5,0.6,1,1.1,1.4,1.3c0.4,0.2,1,0.3,1.5,0.3c0.3,0,0.5,0,0.7-0.1c0.2-0.1,0.4-0.2,0.5-0.3c0.1-0.1,0.2-0.3,0.2-0.5
	c0-0.1,0-0.3-0.1-0.4c-0.1-0.1-0.2-0.2-0.3-0.3c-0.1-0.1-0.3-0.2-0.4-0.2c-0.2-0.1-0.4-0.1-0.5-0.2c-0.2-0.1-0.4-0.1-0.6-0.1
	c-0.6-0.1-1-0.3-1.5-0.5c-0.4-0.2-0.8-0.4-1-0.7c-0.3-0.3-0.5-0.6-0.6-0.9c-0.1-0.3-0.2-0.7-0.2-1.1c0-0.5,0.1-0.9,0.3-1.2
	c0.2-0.4,0.5-0.7,0.8-1c0.3-0.3,0.8-0.5,1.2-0.6c0.5-0.1,0.9-0.2,1.4-0.2c0.7,0,1.2,0.1,1.7,0.2c0.5,0.1,0.9,0.3,1.2,0.6
	c0.3,0.3,0.6,0.6,0.9,0.9l-1.5,1.5c-0.2-0.2-0.4-0.5-0.7-0.6c-0.2-0.2-0.5-0.3-0.7-0.4c-0.3-0.1-0.5-0.1-0.8-0.1s-0.5,0-0.7,0.1
	c-0.2,0.1-0.4,0.2-0.5,0.3c-0.1,0.1-0.2,0.3-0.2,0.5s0,0.3,0.1,0.4c0.1,0.1,0.2,0.2,0.4,0.3c0.2,0.1,0.3,0.2,0.6,0.2
	c0.2,0.1,0.4,0.1,0.7,0.2c0.5,0.1,1,0.2,1.4,0.4c0.4,0.2,0.8,0.4,1.1,0.6s0.6,0.5,0.7,0.9c0.2,0.3,0.3,0.7,0.3,1.2
	C40.4,74.5,40.2,75.1,39.9,75.6z M46.9,86.9c0,0.5-0.1,0.9-0.3,1.2c-0.2,0.4-0.5,0.6-0.8,0.8c-0.5,0.2-0.9,0.3-1.3,0.3
	c-0.5,0-0.9-0.1-1.2-0.3c-0.3-0.2-0.6-0.5-0.8-0.8c-0.2-0.4-0.3-0.8-0.3-1.2v-3.7h0.7v3.7c0,0.3,0.1,0.6,0.2,0.9
	c0.1,0.3,0.4,0.5,0.6,0.6c0.3,0.2,0.5,0.2,0.9,0.2c0.3,0,0.6-0.1,0.9-0.2c0.3-0.2,0.5-0.4,0.6-0.6c0.1-0.3,0.2-0.6,0.2-0.9v-3.7h0.6
	V86.9z M49.2,73.1c0,0.2,0,0.4,0,0.7v3.4h-2.4v-0.4v-10H49l4.7,6.4c0-0.1,0-0.1,0-0.2c0-0.3-0.1-0.6-0.1-0.8c0-0.3,0-0.6-0.1-0.8
	c0-0.3,0-0.6,0-0.9s0-0.7,0-1.1v-2.5h2.4V77h-2.2L49,70.6c0,0.1,0,0.2,0,0.3c0,0.3,0.1,0.6,0.1,0.9c0,0.2,0,0.5,0.1,0.7
	C49.2,72.7,49.2,72.9,49.2,73.1z M57.7,87.3c-0.1,0.4-0.3,0.7-0.6,1c-0.3,0.3-0.5,0.5-0.9,0.6c-0.3,0.1-0.7,0.2-1.1,0.2h-2.3v-6h2.3
	c0.4,0,0.8,0.1,1.1,0.2s0.6,0.4,0.9,0.6c0.3,0.3,0.4,0.6,0.6,1c0.1,0.4,0.2,0.8,0.2,1.2C57.9,86.5,57.8,86.9,57.7,87.3z M65.6,83.7
	h-1v4.8h1v0.6H63v-0.6h1v-4.8h-1v-0.6h2.6V83.7z M67,73c0,0.8-0.2,1.4-0.6,2c-0.4,0.6-0.9,1.1-1.5,1.4c-0.7,0.3-1.5,0.5-2.3,0.5
	c-0.8,0-1.6-0.2-2.2-0.5c-0.6-0.3-1.2-0.8-1.5-1.4c-0.4-0.6-0.6-1.3-0.6-2v-6.2h2.5v6.1c0,0.4,0.1,0.7,0.2,1
	c0.2,0.3,0.4,0.5,0.7,0.7c0.3,0.2,0.6,0.3,0.9,0.3c0.4,0,0.7-0.1,1-0.3c0.3-0.2,0.5-0.4,0.7-0.7c0.2-0.3,0.3-0.6,0.3-1v-6.1H67V73z
	 M59.5,41.9c-0.9,0-1.8,0.1-2.6,0.3c-1.6-4.1-5.5-7-10.2-7c-5.5,0-10.1,4.1-10.9,9.4c4,0,7.9,1.4,11,4.4c0,0,0,0,0,0.1
	c0,0,0,0,0.1,0c0,0,0,0-0.1,0c-6.7-4.9-16.2-4-21.9,2.2c-1.1,1.1-1.9,2.4-2.6,3.7c-2-4.1-3.1-8.6-3.1-13.4c0-17,13.8-30.7,30.7-30.7
	c17,0,30.7,13.8,30.7,30.7c0,5.5-1.4,10.7-4,15.2c-1.9-1.3-3.9-2.2-6.2-2.7c0.1-0.4,0.1-0.8,0.1-1.2C70.5,46.8,65.6,41.9,59.5,41.9z
	 M76.4,87.4c-0.1,0.4-0.4,0.7-0.6,1c-0.3,0.3-0.6,0.5-0.9,0.6c-0.3,0.1-0.7,0.2-1.2,0.2c-0.4,0-0.8-0.1-1.2-0.2
	c-0.4-0.2-0.7-0.4-0.9-0.6c-0.3-0.3-0.5-0.6-0.6-1c-0.1-0.4-0.2-0.8-0.2-1.2c0-0.4,0.1-0.9,0.2-1.2c0.1-0.4,0.4-0.7,0.6-1
	c0.3-0.3,0.6-0.5,0.9-0.6c0.4-0.2,0.8-0.2,1.2-0.2c0.4,0,0.8,0.1,1.2,0.2c0.4,0.2,0.7,0.4,0.9,0.6c0.3,0.3,0.5,0.6,0.6,1
	c0.1,0.4,0.2,0.8,0.2,1.2C76.6,86.6,76.5,87.1,76.4,87.4z M77.5,75.1c-0.2,0.4-0.4,0.7-0.7,1c-0.3,0.3-0.7,0.5-1.1,0.6
	s-0.9,0.2-1.4,0.2h-4.9v-0.1v-10h4.4c0.7,0,1.3,0.1,1.8,0.3c0.5,0.2,0.8,0.5,1.1,0.8c0.2,0.4,0.4,0.8,0.4,1.3c0,0.6-0.1,1.1-0.4,1.5
	c-0.2,0.3-0.5,0.5-0.7,0.6c0.3,0.1,0.5,0.2,0.7,0.4c0.3,0.2,0.6,0.5,0.8,0.9c0.2,0.4,0.3,0.7,0.3,1.2S77.7,74.8,77.5,75.1z
	 M86.7,76.9h-7.2v-0.1v-10h7v2.1h-4.6v1.8h3.9v2h-3.9v2.1h4.8V76.9z M95.6,75.6c-0.3,0.5-0.8,0.9-1.4,1.1c-0.7,0.1-1.4,0.3-2.1,0.3
	c-0.7,0-1.3-0.1-1.8-0.2c-0.5-0.2-1-0.4-1.4-0.7c-0.4-0.3-0.8-0.7-1.1-1.1l1.5-1.7c0.5,0.6,1,1.1,1.4,1.3c0.5,0.2,1,0.3,1.5,0.3
	c0.3,0,0.5,0,0.7-0.1c0.2-0.1,0.4-0.2,0.5-0.3c0.1-0.1,0.2-0.3,0.2-0.5c0-0.1,0-0.3-0.1-0.4c-0.1-0.1-0.2-0.2-0.3-0.3
	c-0.1-0.1-0.3-0.2-0.4-0.2c-0.2-0.1-0.4-0.1-0.5-0.2c-0.2-0.1-0.4-0.1-0.6-0.1c-0.6-0.1-1-0.3-1.5-0.5c-0.4-0.2-0.8-0.4-1-0.7
	c-0.3-0.3-0.5-0.6-0.6-0.9c-0.1-0.3-0.2-0.7-0.2-1.1c0-0.5,0.1-0.9,0.3-1.2c0.2-0.4,0.5-0.7,0.8-1s0.8-0.5,1.2-0.6
	c0.5-0.1,0.9-0.2,1.4-0.2c0.7,0,1.2,0.1,1.7,0.2c0.5,0.1,0.9,0.3,1.2,0.6s0.6,0.6,0.9,0.9l-1.5,1.5c-0.2-0.2-0.4-0.5-0.7-0.6
	c-0.2-0.2-0.5-0.3-0.7-0.4c-0.3-0.1-0.5-0.1-0.8-0.1s-0.5,0-0.7,0.1c-0.2,0.1-0.4,0.2-0.5,0.3c-0.1,0.1-0.2,0.3-0.2,0.5
	s0,0.3,0.1,0.4c0.1,0.1,0.2,0.2,0.4,0.3c0.2,0.1,0.3,0.2,0.6,0.2c0.2,0.1,0.4,0.1,0.7,0.2c0.5,0.1,1,0.2,1.4,0.4s0.8,0.4,1.1,0.6
	c0.3,0.2,0.6,0.5,0.7,0.9c0.2,0.3,0.3,0.7,0.3,1.2C96.1,74.5,95.9,75.1,95.6,75.6z"/>
<path class="st0" d="M46.9,49.1C46.9,49.1,46.9,49.1,46.9,49.1C46.9,49.1,46.9,49.1,46.9,49.1z"/>
<path class="st0" d="M48.2,69.6l0.8,1c0-0.3-0.1-0.6-0.1-0.9L48.2,69.6z"/>
<path class="st0" d="M54.3,74l-0.6-0.8c0,0.2,0.1,0.5,0.1,0.7L54.3,74z"/>
<path class="st0" d="M75.5,71.5c0.2,0,0.3-0.1,0.5-0.2c-0.1-0.1-0.3-0.1-0.5-0.1V71.5z"/>
<polygon class="st0" points="53.2,83.7 53.3,83.7 53.3,83.6 "/>
</svg>
