<?xml version="1.0" encoding="utf-8"?>
<!-- Generator: Adobe Illustrator 23.1.0, SVG Export Plug-In . SVG Version: 6.00 Build 0)  -->
<svg version="1.1" id="Layer_1" xmlns="http://www.w3.org/2000/svg" xmlns:xlink="http://www.w3.org/1999/xlink" x="0px" y="0px"
	 viewBox="0 0 160 80" style="enable-background:new 0 0 160 80;" xml:space="preserve">
<style type="text/css">
	.st0{fill:#231F20;}
</style>
<path class="st0" d="M17.3,43.3c0.8-5.5,5.6-9.8,11.4-9.8c4.9,0,9,3,10.7,7.3c0.8-0.2,1.8-0.4,2.6-0.4c6.4,0,11.5,5.2,11.5,11.5
	c0,0.4,0,0.8-0.1,1.2c2.4,0.5,4.6,1.4,6.5,2.9c2.6-4.7,4.2-10.1,4.2-16C64.3,22.4,50,8,32.2,8S0,22.4,0,40c0,5,1.2,9.7,3.2,14l0,0
	c0.7-1.4,1.6-2.8,2.6-4c6-6.6,16-7.6,23.1-2.3c0,0,0,0-0.1-0.1C25.6,44.8,21.5,43.3,17.3,43.3L17.3,43.3z M15.7,41.8
	c0.4-1.8,0.8-4.9,1.1-6.6c-2.6,2.5-1.9,6-1.6,7.4c-0.6-1.8-2.4-7-2.9-7.9c-0.1-0.2-0.2-0.4-0.4-0.6l0,0c0,0.5-0.7,4.1,3.4,9.1
	c-4.6-4.6-8.3-4.3-8.8-4.3l0,0c0.2,0.1,0.4,0.4,0.6,0.5c1,0.6,5.9,2.8,7.6,3.6c-1.3-0.6-4.8-1.6-7.6,0.8c1.7-0.1,4.9-0.2,6.7-0.5
	c-1.8,0.4-4.9,1.4-8.7,5.3c0,0-1.3-1.9,1.7-4.7c0.1-0.1,0.1-0.1,0.2-0.2c-0.6,0-1,0-1.1,0c-0.8-0.1-3.5-0.1-3.2-2.3
	c0.2-2.5,3.4-2.5,3.7-2.5c-1.1-1-2.3-3.1,0.1-5.3s4.3-0.8,5.3,0.4c0-0.4,0.4-3.5,2.9-3.5c2.2,0,1.9,2.6,2,3.5c0,0.1,0,0.6-0.1,1.1
	c0.1-0.1,0.1-0.1,0.2-0.2c3-2.6,4.8-1.2,4.8-1.2C17.8,37.1,16.3,40.1,15.7,41.8z"/>
<g>
	<path class="st0" d="M74.8,38.6v-9.1h2.6v9.1H74.8z M76,31.7v-2.3h5.3v2.3H76z M76,35.3v-2h4.7v2H76z"/>
	<path class="st0" d="M82.9,38.6v-9.1h2.6v7h4v2.3h-6.6V38.6z"/>
	<path class="st0" d="M95.1,38.7c-0.7,0-1.3-0.1-1.9-0.4c-0.6-0.2-1.1-0.6-1.6-1c-0.5-0.5-0.7-1-1-1.6c-0.2-0.6-0.4-1.2-0.4-1.9
		s0.1-1.3,0.4-1.9c0.2-0.6,0.6-1.1,1-1.6c0.5-0.5,1-0.7,1.6-1c0.6-0.2,1.2-0.4,1.9-0.4s1.3,0.1,1.9,0.4c0.6,0.2,1.1,0.6,1.6,1
		c0.5,0.5,0.7,1,1,1.6c0.2,0.6,0.4,1.2,0.4,1.9s-0.1,1.3-0.4,1.9c-0.2,0.6-0.6,1.1-1,1.6c-0.5,0.5-1,0.7-1.6,1
		C96.4,38.6,95.8,38.7,95.1,38.7z M95.1,36.3c0.4,0,0.6,0,0.8-0.1c0.2-0.1,0.5-0.2,0.7-0.5c0.2-0.2,0.4-0.5,0.5-0.7s0.1-0.6,0.1-1
		s0-0.6-0.1-1c-0.1-0.2-0.2-0.5-0.5-0.7c-0.2-0.2-0.5-0.4-0.7-0.5c-0.2-0.2-0.6-0.2-0.8-0.2c-0.4,0-0.6,0-0.8,0.1s-0.5,0.2-0.7,0.5
		c-0.2,0.2-0.4,0.5-0.5,0.7s-0.1,0.6-0.1,1s0,0.6,0.1,1c0.1,0.2,0.2,0.5,0.5,0.7c0.2,0.2,0.5,0.4,0.7,0.5
		C94.5,36.3,94.7,36.3,95.1,36.3z"/>
	<path class="st0" d="M104.7,38.7c-0.6,0-1.2-0.1-1.8-0.2c-0.5-0.1-1-0.4-1.3-0.6c-0.4-0.2-0.7-0.6-1.1-1l1.6-1.7
		c0.5,0.6,0.8,1,1.3,1.1c0.5,0.2,1,0.2,1.3,0.2c0.2,0,0.4,0,0.5,0s0.2-0.1,0.4-0.2c0.1-0.1,0.1-0.2,0.1-0.4c0-0.1,0-0.2-0.1-0.4
		c-0.1-0.1-0.1-0.1-0.2-0.2c-0.1-0.1-0.2-0.1-0.4-0.1c-0.1,0-0.2-0.1-0.5-0.1c-0.1,0-0.2-0.1-0.5-0.1c-0.5-0.1-1-0.2-1.3-0.5
		c-0.4-0.1-0.7-0.4-1-0.6c-0.2-0.2-0.5-0.5-0.6-0.8c-0.1-0.4-0.2-0.7-0.2-1.1c0-0.5,0.1-0.8,0.4-1.2c0.2-0.4,0.5-0.7,0.8-1
		c0.4-0.2,0.7-0.5,1.2-0.6s0.8-0.2,1.3-0.2c0.6,0,1.2,0.1,1.7,0.2s0.8,0.4,1.2,0.6s0.6,0.5,0.8,0.8l-1.6,1.4
		c-0.2-0.2-0.4-0.4-0.6-0.5s-0.5-0.2-0.7-0.2c-0.2-0.1-0.5-0.1-0.7-0.1s-0.4,0-0.6,0.1c-0.1,0-0.2,0.1-0.4,0.2
		c-0.1,0.1-0.1,0.2-0.1,0.4s0,0.2,0.1,0.4s0.2,0.1,0.4,0.2c0.1,0.1,0.4,0.1,0.5,0.1s0.4,0.1,0.5,0.1c0.5,0.1,1,0.2,1.3,0.4
		c0.4,0.1,0.7,0.4,1.1,0.6c0.2,0.2,0.5,0.5,0.7,0.8c0.1,0.4,0.2,0.7,0.2,1.2c0,0.6-0.1,1.2-0.5,1.7s-0.7,0.8-1.3,1.1
		C106,38.6,105.4,38.7,104.7,38.7z"/>
	<path class="st0" d="M114.3,38.6v-9.1h2.3l4.4,6.1l-0.5-0.1c0-0.4-0.1-0.6-0.1-0.8s0-0.5-0.1-0.7c0-0.2,0-0.5,0-0.7s0-0.5,0-0.7
		s0-0.6,0-1v-1.9h2.5v9.1h-2.4l-4.8-6.6l1,0.2c0,0.4,0.1,0.7,0.1,1c0,0.2,0,0.5,0.1,0.7c0,0.2,0,0.4,0,0.6s0,0.4,0,0.6
		c0,0.2,0,0.5,0,0.7v2.8h-2.5V38.6z"/>
	<path class="st0" d="M129,38.7c-0.7,0-1.4-0.1-2-0.5s-1.1-0.7-1.4-1.3c-0.4-0.6-0.5-1.2-0.5-1.8v-5.6h2.6V35c0,0.2,0.1,0.6,0.2,0.7
		c0.1,0.2,0.2,0.4,0.5,0.5c0.2,0.1,0.5,0.2,0.7,0.2s0.6-0.1,0.7-0.2c0.2-0.1,0.4-0.4,0.5-0.5c0.1-0.2,0.2-0.5,0.2-0.7v-5.5h2.5v5.6
		c0,0.7-0.1,1.3-0.5,1.8c-0.4,0.6-0.8,1-1.4,1.3C130.5,38.6,129.8,38.7,129,38.7z"/>
	<path class="st0" d="M135.2,38.6v-9.1h4.2c0.6,0,1.2,0.1,1.7,0.2c0.5,0.2,0.8,0.5,1.1,0.7c0.2,0.4,0.4,0.7,0.4,1.2
		c0,0.6-0.1,1-0.4,1.3s-0.6,0.6-1.1,0.7v-0.2c0.4,0.1,0.7,0.2,1.1,0.5c0.4,0.2,0.5,0.5,0.7,0.8c0.1,0.4,0.2,0.7,0.2,1.1
		c0,0.5-0.1,0.8-0.2,1.2c-0.1,0.4-0.4,0.6-0.7,0.8c-0.4,0.2-0.7,0.4-1.1,0.5c-0.4,0.1-0.8,0.1-1.3,0.1h-4.6V38.6z M137.6,33.1h1.3
		c0.2,0,0.4,0,0.5-0.1c0.1-0.1,0.2-0.1,0.4-0.2c0.1-0.1,0.1-0.2,0.1-0.4c0-0.2-0.1-0.5-0.2-0.6s-0.4-0.2-0.7-0.2h-1.3V33.1z
		 M137.6,36.6h1.8c0.2,0,0.4,0,0.5-0.1c0.1-0.1,0.2-0.1,0.4-0.2c0.1-0.1,0.1-0.2,0.1-0.5c0-0.1,0-0.4-0.1-0.5
		c-0.1-0.1-0.2-0.2-0.4-0.2c-0.1-0.1-0.4-0.1-0.5-0.1h-1.7v1.7H137.6z"/>
	<path class="st0" d="M144.5,38.6v-9.1h6.7v2.2H147v4.8h4.3v2.2H144.5z M145.7,35v-2h4.9v2H145.7z"/>
	<path class="st0" d="M156.3,38.7c-0.6,0-1.2-0.1-1.8-0.2c-0.5-0.1-1-0.4-1.3-0.6s-0.7-0.6-1.1-1l1.6-1.7c0.5,0.6,0.8,1,1.3,1.1
		c0.5,0.2,1,0.2,1.3,0.2c0.2,0,0.4,0,0.5,0c0.1,0,0.2-0.1,0.4-0.2c0.1-0.1,0.1-0.2,0.1-0.4c0-0.1,0-0.2-0.1-0.4
		c-0.1-0.1-0.1-0.1-0.2-0.2c-0.1-0.1-0.2-0.1-0.4-0.1c-0.1,0-0.2-0.1-0.5-0.1c-0.1,0-0.2-0.1-0.5-0.1c-0.5-0.1-1-0.2-1.3-0.5
		c-0.4-0.1-0.7-0.4-1-0.6s-0.5-0.5-0.6-0.8c-0.1-0.4-0.2-0.7-0.2-1.1c0-0.5,0.1-0.8,0.4-1.2c0.2-0.4,0.5-0.7,0.8-1
		c0.4-0.2,0.7-0.5,1.2-0.6s0.8-0.2,1.3-0.2c0.6,0,1.2,0.1,1.7,0.2s0.8,0.4,1.2,0.6c0.4,0.2,0.6,0.5,0.8,0.8l-1.6,1.4
		c-0.2-0.2-0.4-0.4-0.6-0.5s-0.5-0.2-0.7-0.2c-0.2-0.1-0.5-0.1-0.7-0.1c-0.2,0-0.4,0-0.6,0.1c-0.1,0-0.2,0.1-0.4,0.2
		c-0.1,0.1-0.1,0.2-0.1,0.4s0,0.2,0.1,0.4c0.1,0.1,0.2,0.1,0.4,0.2c0.1,0.1,0.4,0.1,0.5,0.1s0.4,0.1,0.5,0.1c0.5,0.1,1,0.2,1.3,0.4
		c0.4,0.1,0.7,0.4,1.1,0.6c0.2,0.2,0.5,0.5,0.7,0.8c0.2,0.4,0.2,0.7,0.2,1.2c0,0.6-0.1,1.2-0.5,1.7c-0.4,0.5-0.7,0.8-1.3,1.1
		C157.6,38.6,157,38.7,156.3,38.7z"/>
	<g>
		<path class="st0" d="M77.2,50.9c-0.4,0-0.8,0-1.1-0.1c-0.4-0.1-0.6-0.2-0.8-0.4s-0.5-0.4-0.7-0.6l1-1.1c0.2,0.4,0.6,0.6,0.8,0.7
			s0.6,0.2,0.8,0.2c0.1,0,0.2,0,0.4,0s0.1-0.1,0.2-0.1c0,0,0.1-0.1,0.1-0.2c0-0.1,0-0.1-0.1-0.2c0,0-0.1-0.1-0.2-0.1
			s-0.1-0.1-0.2-0.1s-0.2-0.1-0.2-0.1c-0.1,0-0.2,0-0.2-0.1c-0.4-0.1-0.6-0.1-0.8-0.2c-0.2-0.1-0.5-0.2-0.6-0.4s-0.2-0.4-0.4-0.5
			c-0.1-0.2-0.1-0.5-0.1-0.7c0-0.2,0.1-0.5,0.2-0.7c0.1-0.2,0.2-0.5,0.5-0.6c0.2-0.1,0.5-0.2,0.7-0.4c0.2-0.1,0.6-0.1,0.8-0.1
			c0.4,0,0.7,0,1.1,0.1c0.2,0.1,0.5,0.2,0.7,0.4s0.4,0.4,0.5,0.5l-1,1c-0.1-0.1-0.2-0.2-0.4-0.4c-0.1-0.1-0.2-0.1-0.5-0.2
			c-0.1,0-0.2-0.1-0.5-0.1c-0.1,0-0.2,0-0.4,0c-0.1,0-0.2,0.1-0.2,0.1s-0.1,0.1-0.1,0.2c0,0.1,0,0.1,0.1,0.2c0.1,0,0.1,0.1,0.2,0.1
			s0.2,0.1,0.4,0.1c0.1,0,0.2,0,0.2,0.1c0.4,0.1,0.6,0.1,0.8,0.2c0.2,0.1,0.5,0.2,0.7,0.4s0.4,0.4,0.5,0.6s0.1,0.5,0.1,0.7
			c0,0.4-0.1,0.7-0.4,1.1c-0.2,0.2-0.5,0.5-0.8,0.6C78,50.9,77.7,50.9,77.2,50.9z"/>
		<path class="st0" d="M91.8,50.9v-4.4H90V45h5.3v1.4h-1.8v4.4H91.8z"/>
		<path class="st0" d="M108.9,50.9c-0.5,0-1-0.1-1.3-0.2c-0.4-0.2-0.7-0.5-1-0.8c-0.2-0.4-0.4-0.7-0.4-1.2V45h1.7v3.6
			c0,0.2,0,0.4,0.1,0.5c0.1,0.1,0.2,0.2,0.4,0.4c0.1,0.1,0.2,0.1,0.5,0.1c0.2,0,0.4,0,0.5-0.1s0.2-0.2,0.4-0.4
			c0.1-0.1,0.1-0.4,0.1-0.5V45h1.7v3.6c0,0.5-0.1,0.8-0.4,1.2c-0.2,0.4-0.5,0.6-1,0.8C109.9,50.7,109.4,50.9,108.9,50.9z"/>
		<path class="st0" d="M122.9,50.9V45h2.5c0.5,0,0.8,0.1,1.2,0.2c0.4,0.1,0.7,0.4,1,0.6c0.2,0.2,0.5,0.6,0.6,1
			c0.1,0.4,0.2,0.7,0.2,1.2s-0.1,0.8-0.2,1.2s-0.4,0.7-0.6,1c-0.2,0.2-0.6,0.5-1,0.6s-0.7,0.2-1.2,0.2h-2.5V50.9z M124.5,49.8
			l-0.2-0.4h1.1c0.2,0,0.4,0,0.6-0.1c0.1-0.1,0.4-0.1,0.5-0.4c0.1-0.1,0.2-0.2,0.2-0.5c0.1-0.2,0.1-0.4,0.1-0.6s0-0.5-0.1-0.6
			c-0.1-0.2-0.1-0.4-0.2-0.5c-0.1-0.1-0.2-0.2-0.5-0.4c-0.1-0.1-0.4-0.1-0.6-0.1h-1.1l0.2-0.2V49.8z"/>
		<path class="st0" d="M139.3,50.9v-1.3h1.1v-3.1h-1.1v-1.3h3.7v1.3h-1v3.1h1v1.3H139.3z"/>
		<path class="st0" d="M157,50.9c-0.5,0-0.8-0.1-1.2-0.2c-0.4-0.1-0.7-0.4-1-0.6c-0.2-0.2-0.5-0.6-0.6-1c-0.1-0.4-0.2-0.7-0.2-1.2
			s0.1-0.8,0.2-1.2c0.1-0.4,0.4-0.7,0.6-1s0.6-0.5,1-0.6c0.4-0.1,0.8-0.2,1.2-0.2c0.4,0,0.8,0.1,1.2,0.2c0.4,0.1,0.7,0.4,1,0.6
			c0.2,0.2,0.5,0.6,0.6,1c0.1,0.4,0.2,0.7,0.2,1.2s-0.1,0.8-0.2,1.2c-0.1,0.4-0.4,0.7-0.6,1c-0.2,0.2-0.6,0.5-1,0.6
			C157.8,50.9,157.4,50.9,157,50.9z M157,49.3c0.2,0,0.4,0,0.6-0.1c0.1-0.1,0.4-0.1,0.5-0.4c0.1-0.2,0.2-0.2,0.2-0.5
			c0.1-0.2,0.1-0.4,0.1-0.6s0-0.4-0.1-0.6c-0.1-0.2-0.1-0.4-0.2-0.5c-0.1-0.1-0.2-0.2-0.5-0.4c-0.1-0.1-0.4-0.1-0.6-0.1
			s-0.4,0-0.6,0.1c-0.1,0.1-0.4,0.1-0.5,0.4c-0.1,0.1-0.2,0.2-0.2,0.5c-0.1,0.2-0.1,0.4-0.1,0.6s0,0.4,0.1,0.6
			c0.1,0.2,0.1,0.4,0.2,0.5c0.1,0.1,0.2,0.2,0.5,0.4C156.5,49.3,156.8,49.3,157,49.3z"/>
	</g>
</g>
</svg>
