<?xml version="1.0" encoding="utf-8"?>
<!-- Generator: Adobe Illustrator 23.1.0, SVG Export Plug-In . SVG Version: 6.00 Build 0)  -->
<svg version="1.1" id="Layer_1" xmlns="http://www.w3.org/2000/svg" xmlns:xlink="http://www.w3.org/1999/xlink" x="0px" y="0px"
	 viewBox="0 0 60 60" style="enable-background:new 0 0 60 60;" xml:space="preserve">
<style type="text/css">
	.st0{fill:none;stroke:#000000;stroke-width:2;stroke-linecap:round;stroke-linejoin:round;stroke-miterlimit:10;}
</style>
<path class="st0" d="M6.8,12.7c0,0,1.3,37.8,41.6,40.3c0,0,1.6,0.3,2.2-1l2.5-10.2c0,0,0.6-1.6-1-2.2L41.8,35c0,0-1.6-0.6-2.2,0.3
	c-0.6,1-4.8,6-4.8,6s-12.1-6-15.9-15.9l6-5.1c0,0,1-1,0.3-2.2c-0.5-1.1-4.6-10-4.6-10s-1-1.6-2.9-1S9.1,9.3,9.1,9.3S6.6,10,6.8,12.7
	z"/>
</svg>
