<?xml version="1.0" encoding="utf-8"?>
<!-- Generator: Adobe Illustrator 23.1.0, SVG Export Plug-In . SVG Version: 6.00 Build 0)  -->
<svg version="1.1" id="Layer_1" xmlns="http://www.w3.org/2000/svg" xmlns:xlink="http://www.w3.org/1999/xlink" x="0px" y="0px"
	 viewBox="0 0 60 60" style="enable-background:new 0 0 60 60;" xml:space="preserve">
<path d="M52.7,9.1H7.3c-2.9,0-5.2,2.3-5.2,5.2v31.4c0,2.9,2.3,5.2,5.2,5.2h45.4c2.9,0,5.2-2.3,5.2-5.2V14.3
	C57.9,11.4,55.6,9.1,52.7,9.1z M52.7,14.3v4.4c-2.4,2-6.3,5.1-14.7,11.6c-1.8,1.4-5.5,4.9-8,4.9c-2.5,0-6.2-3.4-8-4.9
	c-8.3-6.5-12.2-9.6-14.7-11.6v-4.4H52.7z M7.3,45.7V25.5c2.5,2,6,4.8,11.4,9c2.4,1.9,6.6,6,11.2,6c4.7,0,8.8-4.1,11.2-6
	c5.4-4.2,8.9-7,11.4-9v20.2H7.3z"/>
</svg>
